<mxfile host="app.diagrams.net" modified="2021-06-16T15:28:42.482Z" agent="5.0 (X11)" etag="dEdavkMergSOybvsKjuG" version="14.7.10" type="github">
  <diagram id="_913aivV4CYOfqDnz_bX" name="Page-1">
    <mxGraphModel dx="2062" dy="1125" grid="1" gridSize="10" guides="1" tooltips="1" connect="1" arrows="1" fold="1" page="1" pageScale="1" pageWidth="1169" pageHeight="827" background="none" math="0" shadow="0">
      <root>
        <mxCell id="0" />
        <mxCell id="1" parent="0" />
        <mxCell id="zIvNiBTMO8En3okE_yfr-1" value="ANY" style="rounded=0;whiteSpace=wrap;html=1;fontFamily=Courier New;fontSize=20;fontStyle=2" parent="1" vertex="1">
          <mxGeometry x="525" y="69" width="120" height="60" as="geometry" />
        </mxCell>
        <mxCell id="zIvNiBTMO8En3okE_yfr-2" value="Amici" style="rounded=0;whiteSpace=wrap;html=1;fontFamily=Courier New;fontSize=20;fontStyle=2" parent="1" vertex="1">
          <mxGeometry x="250" y="189" width="120" height="60" as="geometry" />
        </mxCell>
        <mxCell id="zIvNiBTMO8En3okE_yfr-3" value="Colleghi" style="rounded=0;whiteSpace=wrap;html=1;fontFamily=Courier New;fontSize=20;fontStyle=2" parent="1" vertex="1">
          <mxGeometry x="770" y="189" width="120" height="60" as="geometry" />
        </mxCell>
        <mxCell id="zIvNiBTMO8En3okE_yfr-4" value="&lt;div&gt;TeamProgetto&lt;/div&gt;" style="rounded=0;whiteSpace=wrap;html=1;fontFamily=Courier New;fontSize=20;fontStyle=2" parent="1" vertex="1">
          <mxGeometry x="830" y="319" width="160" height="60" as="geometry" />
        </mxCell>
        <mxCell id="zIvNiBTMO8En3okE_yfr-5" value="Bob" style="rounded=0;whiteSpace=wrap;html=1;fontFamily=Courier New;fontSize=20;fontStyle=0" parent="1" vertex="1">
          <mxGeometry x="160" y="319" width="120" height="60" as="geometry" />
        </mxCell>
        <mxCell id="zIvNiBTMO8En3okE_yfr-6" value="Carol" style="rounded=0;whiteSpace=wrap;html=1;fontFamily=Courier New;fontSize=20;fontStyle=0" parent="1" vertex="1">
          <mxGeometry x="340" y="319" width="120" height="60" as="geometry" />
        </mxCell>
        <mxCell id="zIvNiBTMO8En3okE_yfr-7" value="Daniel" style="rounded=0;whiteSpace=wrap;html=1;fontFamily=Courier New;fontSize=20;fontStyle=0" parent="1" vertex="1">
          <mxGeometry x="740" y="439" width="120" height="60" as="geometry" />
        </mxCell>
        <mxCell id="zIvNiBTMO8En3okE_yfr-8" value="Elen" style="rounded=0;whiteSpace=wrap;html=1;fontFamily=Courier New;fontSize=20;fontStyle=0" parent="1" vertex="1">
          <mxGeometry x="960" y="439" width="120" height="60" as="geometry" />
        </mxCell>
        <mxCell id="zIvNiBTMO8En3okE_yfr-9" value="Fiona" style="rounded=0;whiteSpace=wrap;html=1;fontFamily=Courier New;fontSize=20;fontStyle=0" parent="1" vertex="1">
          <mxGeometry x="525" y="319" width="120" height="60" as="geometry" />
        </mxCell>
        <mxCell id="zIvNiBTMO8En3okE_yfr-10" value="" style="endArrow=classic;html=1;fontFamily=Courier New;fontSize=20;entryX=0.25;entryY=1;entryDx=0;entryDy=0;exitX=0.75;exitY=0;exitDx=0;exitDy=0;fontStyle=0" parent="1" source="zIvNiBTMO8En3okE_yfr-2" target="zIvNiBTMO8En3okE_yfr-1" edge="1">
          <mxGeometry width="50" height="50" relative="1" as="geometry">
            <mxPoint x="420" y="149" as="sourcePoint" />
            <mxPoint x="470" y="99" as="targetPoint" />
          </mxGeometry>
        </mxCell>
        <mxCell id="zIvNiBTMO8En3okE_yfr-13" value="" style="endArrow=classic;html=1;fontFamily=Courier New;fontSize=20;exitX=0.25;exitY=0;exitDx=0;exitDy=0;entryX=0.75;entryY=1;entryDx=0;entryDy=0;fontStyle=0" parent="1" source="zIvNiBTMO8En3okE_yfr-3" target="zIvNiBTMO8En3okE_yfr-1" edge="1">
          <mxGeometry width="50" height="50" relative="1" as="geometry">
            <mxPoint x="450" y="439" as="sourcePoint" />
            <mxPoint x="500" y="389" as="targetPoint" />
          </mxGeometry>
        </mxCell>
        <mxCell id="zIvNiBTMO8En3okE_yfr-17" value="" style="endArrow=classic;html=1;fontFamily=Courier New;fontSize=20;exitX=0.5;exitY=0;exitDx=0;exitDy=0;entryX=0.25;entryY=1;entryDx=0;entryDy=0;fontStyle=0" parent="1" source="zIvNiBTMO8En3okE_yfr-5" target="zIvNiBTMO8En3okE_yfr-2" edge="1">
          <mxGeometry width="50" height="50" relative="1" as="geometry">
            <mxPoint x="240" y="319" as="sourcePoint" />
            <mxPoint x="290" y="269" as="targetPoint" />
          </mxGeometry>
        </mxCell>
        <mxCell id="zIvNiBTMO8En3okE_yfr-18" value="" style="endArrow=classic;html=1;fontFamily=Courier New;fontSize=20;exitX=0.5;exitY=0;exitDx=0;exitDy=0;entryX=0.5;entryY=1;entryDx=0;entryDy=0;fontStyle=0" parent="1" source="zIvNiBTMO8En3okE_yfr-6" target="zIvNiBTMO8En3okE_yfr-2" edge="1">
          <mxGeometry width="50" height="50" relative="1" as="geometry">
            <mxPoint x="250" y="369" as="sourcePoint" />
            <mxPoint x="290" y="279" as="targetPoint" />
          </mxGeometry>
        </mxCell>
        <mxCell id="zIvNiBTMO8En3okE_yfr-19" value="" style="endArrow=classic;html=1;fontFamily=Courier New;fontSize=20;entryX=0.75;entryY=1;entryDx=0;entryDy=0;exitX=0.25;exitY=0;exitDx=0;exitDy=0;fontStyle=0" parent="1" source="zIvNiBTMO8En3okE_yfr-9" target="zIvNiBTMO8En3okE_yfr-2" edge="1">
          <mxGeometry width="50" height="50" relative="1" as="geometry">
            <mxPoint x="460" y="439" as="sourcePoint" />
            <mxPoint x="510" y="389" as="targetPoint" />
          </mxGeometry>
        </mxCell>
        <mxCell id="zIvNiBTMO8En3okE_yfr-20" value="" style="endArrow=classic;html=1;fontFamily=Courier New;fontSize=20;entryX=0.25;entryY=1;entryDx=0;entryDy=0;exitX=0.75;exitY=0;exitDx=0;exitDy=0;fontStyle=0" parent="1" source="zIvNiBTMO8En3okE_yfr-9" target="zIvNiBTMO8En3okE_yfr-3" edge="1">
          <mxGeometry width="50" height="50" relative="1" as="geometry">
            <mxPoint x="565" y="349" as="sourcePoint" />
            <mxPoint x="350" y="279" as="targetPoint" />
          </mxGeometry>
        </mxCell>
        <mxCell id="zIvNiBTMO8En3okE_yfr-21" value="" style="endArrow=classic;html=1;fontFamily=Courier New;fontSize=20;entryX=0.586;entryY=1.019;entryDx=0;entryDy=0;exitX=0.5;exitY=0;exitDx=0;exitDy=0;entryPerimeter=0;fontStyle=0" parent="1" source="zIvNiBTMO8En3okE_yfr-4" target="zIvNiBTMO8En3okE_yfr-3" edge="1">
          <mxGeometry width="50" height="50" relative="1" as="geometry">
            <mxPoint x="460" y="439" as="sourcePoint" />
            <mxPoint x="510" y="389" as="targetPoint" />
          </mxGeometry>
        </mxCell>
        <mxCell id="zIvNiBTMO8En3okE_yfr-23" value="" style="endArrow=classic;html=1;fontFamily=Courier New;fontSize=20;exitX=0.5;exitY=0;exitDx=0;exitDy=0;entryX=0.25;entryY=1;entryDx=0;entryDy=0;fontStyle=0" parent="1" source="zIvNiBTMO8En3okE_yfr-7" target="zIvNiBTMO8En3okE_yfr-4" edge="1">
          <mxGeometry width="50" height="50" relative="1" as="geometry">
            <mxPoint x="460" y="439" as="sourcePoint" />
            <mxPoint x="510" y="389" as="targetPoint" />
          </mxGeometry>
        </mxCell>
        <mxCell id="zIvNiBTMO8En3okE_yfr-24" value="" style="endArrow=classic;html=1;fontFamily=Courier New;fontSize=20;exitX=0.5;exitY=0;exitDx=0;exitDy=0;entryX=0.75;entryY=1;entryDx=0;entryDy=0;fontStyle=0" parent="1" source="zIvNiBTMO8En3okE_yfr-8" target="zIvNiBTMO8En3okE_yfr-4" edge="1">
          <mxGeometry width="50" height="50" relative="1" as="geometry">
            <mxPoint x="460" y="439" as="sourcePoint" />
            <mxPoint x="510" y="389" as="targetPoint" />
          </mxGeometry>
        </mxCell>
      </root>
    </mxGraphModel>
  </diagram>
</mxfile>
